<svg width="46" height="34" viewBox="0 0 46 34" fill="none" xmlns="http://www.w3.org/2000/svg">
<path d="M39.6666 8.66658H33.4166V0.333252H4.24998C1.95831 0.333252 0.083313 2.20825 0.083313 4.49992V27.4166H4.24998C4.24998 30.8749 7.04165 33.6666 10.5 33.6666C13.9583 33.6666 16.75 30.8749 16.75 27.4166H29.25C29.25 30.8749 32.0416 33.6666 35.5 33.6666C38.9583 33.6666 41.75 30.8749 41.75 27.4166H45.9166V16.9999L39.6666 8.66658ZM10.5 30.5416C8.77081 30.5416 7.37498 29.1457 7.37498 27.4166C7.37498 25.6874 8.77081 24.2916 10.5 24.2916C12.2291 24.2916 13.625 25.6874 13.625 27.4166C13.625 29.1457 12.2291 30.5416 10.5 30.5416ZM38.625 11.7916L42.7083 16.9999H33.4166V11.7916H38.625ZM35.5 30.5416C33.7708 30.5416 32.375 29.1457 32.375 27.4166C32.375 25.6874 33.7708 24.2916 35.5 24.2916C37.2291 24.2916 38.625 25.6874 38.625 27.4166C38.625 29.1457 37.2291 30.5416 35.5 30.5416Z" fill="#072208"/>
</svg>
