<svg width="38" height="44" viewBox="0 0 38 44" fill="none" xmlns="http://www.w3.org/2000/svg">
<path d="M33.5833 0.166748H4.41667C2.10417 0.166748 0.25 2.04175 0.25 4.33341V33.5001C0.25 35.7917 2.10417 37.6667 4.41667 37.6667H12.75L19 43.9167L25.25 37.6667H33.5833C35.875 37.6667 37.75 35.7917 37.75 33.5001V4.33341C37.75 2.04175 35.875 0.166748 33.5833 0.166748ZM21.0833 33.5001H16.9167V29.3334H21.0833V33.5001ZM25.3958 17.3542L23.5208 19.2709C22.0208 20.7917 21.0833 22.0417 21.0833 25.1667H16.9167V24.1251C16.9167 21.8334 17.8542 19.7501 19.3542 18.2292L21.9375 15.6042C22.7083 14.8542 23.1667 13.8126 23.1667 12.6667C23.1667 10.3751 21.2917 8.50008 19 8.50008C16.7083 8.50008 14.8333 10.3751 14.8333 12.6667H10.6667C10.6667 8.06258 14.3958 4.33341 19 4.33341C23.6042 4.33341 27.3333 8.06258 27.3333 12.6667C27.3333 14.5001 26.5833 16.1667 25.3958 17.3542Z" fill="#072208"/>
</svg>
