<svg width="40" height="38" viewBox="0 0 40 38" fill="none" xmlns="http://www.w3.org/2000/svg">
<path d="M37.75 31.5V33.5833C37.75 35.875 35.875 37.75 33.5833 37.75H4.41667C2.10417 37.75 0.25 35.875 0.25 33.5833V4.41667C0.25 2.125 2.10417 0.25 4.41667 0.25H33.5833C35.875 0.25 37.75 2.125 37.75 4.41667V6.5H19C16.6875 6.5 14.8333 8.375 14.8333 10.6667V27.3333C14.8333 29.625 16.6875 31.5 19 31.5H37.75ZM19 27.3333H39.8333V10.6667H19V27.3333ZM27.3333 22.125C25.6042 22.125 24.2083 20.7292 24.2083 19C24.2083 17.2708 25.6042 15.875 27.3333 15.875C29.0625 15.875 30.4583 17.2708 30.4583 19C30.4583 20.7292 29.0625 22.125 27.3333 22.125Z" fill="#072208"/>
</svg>
